<svg xmlns="http://www.w3.org/2000/svg" xml:space="preserve" width="16" height="16" data-version="2">
    <path fill="#e9bd8c" d="M10.28 11.62q-.28 0-.59-.29-.31-.29-.58-.76L7.94 8.44h-.92l-.03 1.64q0 .39.05.59.05.19.22.25.17.06.52.06l.02.04-.09.46H7.6q-.11-.01-.29-.01-.17-.01-.37-.01-.2-.01-.4-.01-.28-.01-.57 0-.29.01-.49.02l-.21.01.1-.49q.52-.06.68-.23.16-.17.16-.64l.01-4.62q0-.35-.08-.47t-.33-.12q-.1 0-.23.01l-.14.01-.02-.05.07-.48.13.01q.13 0 .33.01.19 0 .4.01h.73l.45-.02q.23-.01.38-.01l.16-.01q1.02 0 1.62.46.59.46.59 1.27 0 .66-.42 1.21-.43.55-1.2.9l1.21 1.91q.32.52.62.73.31.21.75.21l.04.04-.07.38Zm-2.1-3.69.18-.07q.18-.07.41-.25.23-.17.41-.49.19-.32.19-.81 0-.72-.5-1.08-.5-.37-1.52-.37-.11 0-.15.05-.03.05-.04.21-.05.86-.08 1.49-.02.63-.03 1.21Z" paint-order="stroke"/>
    <rect width="6.01" height="7.23" x="-3.005" y="-3.615" fill="none" rx="0" ry="0" transform="translate(8.775 8.505)"/>
</svg>
